<?xml version="1.0" encoding="UTF-8"?>
<svg version="1.1" viewBox="0 0 1391 1152" width="1280" height="1280" xmlns="http://www.w3.org/2000/svg">
<path transform="translate(734,163)" d="m0 0h15l10 3 9 7 6 7 3 7 1 5v19l6 3 4-2 5-5 5-2h16l8 4 5 6 2 7-1 17 7 5v3l7-2 4-4 6-2h9l13 4 7-1 11-7 9-6 12-6 12-2h9l16 4 11 7 9 9 6 10 3 8v3l4 1 6 8h4l1-5v-10l3-14 4-3 9-4 3-3-9 3 6-7 8-6 9-4 6-2h11l10 5 7 7 4 9 1 11-2 10-4 8-7 9-12 6h-11l-5-4v-4l11 1 8-3 7-6 4-9 1-10-3-9-7-6-3-1h-13l-10 5-5 5-6 7-3 10v7l4 13 15 30 5 16 3 24-3 25-2 9v6h18l12 5 6 5 6 9 3 10v13l-3 10-4 8-6 8-8 7-7 3-6 1h-10l-10-3-6-4-6-7-3-8v-9l4-9 5-5 4-2 3-11-2-3-5 2-5 4-7 8-9 10-11 12-13 13-13 9-14 8-16 6h-6l2-4 13-8 19-12 12-9 14-12 10-11 13-18 7-10 6-12 5-15v-7l-13-13 2-6 3-4 3-12 3-4v-8l-3-3-2-8-7-12-11-10-6-1-3 9-1 9-1 4-5 2-4 6-5 12-9 13-12 13-7 8-4 11v18l-4 6-3 5v9l2 5 10-1 5 4 1 2v6l-5 6h-9l-8 2-1 4 2 5v5l-4 2h-7l-13 5-5 2-8 6-11 6-2 8v10l-12 9-7 2h-9l-6 3-2 3 1 5 3 4 4-1 9-6 6-2h13l16 6 26 14 16 9 5 1 2-6 6-9 9-7 7-3 17-2 9 3 11 8 5 6 1 7-2 3h-5l-2-3 3-1 1-3-6 1-4-6-4-3-12-2-9 3-6 7-1 2v9l3 5 15 10 21 11 17 10 10 7 8 8 5 11 1 4v24l4 9v8l-4 11-7 9-9 8-3 2-1 5 3 6v15l-5 9-8 7-6 3-1 5 3 1h15l10 2 9 4 11 7 10 10 5 8 4 11 1 6v17l-3 5-8 4-5 6 2 4 8-1 2 2v7l-4 10-5 7-1 8 4 2 10 7 7 8 4 6 13 2 3 3 1 7 5-1 2-3-1-4-7-9-5-10-3-11v-16l3-12 6-9 7-6 7-3h12l9 4 7 7 4 8 4 11 6 7 8 3 7 1h44l12 3 16 8 9 7 8 10 7 14 1 13 5 13 3 14 3 9 11 30 12 34 8 19 6 11 6 7 1 4 3 1 7 9 8 11 10 15 8 11 15 15-1 8-7 11-11 11-17 11-16 8-13 4-21 3-16-2-14-5-5-3-7-12-5-8-4-15-3-10-1-3-7-1-3 6-4 1-13-5-11-7-12-11-11-13-6 1-3 10-7 11-9 8-12 6-9 1h-10l-12-3-10-6-5-4-6-10-4-16-13-7-7-6-5-10v-5l-3-1-2-9v-11l-6-2-9-6-6-10-5-11-1-8v-14l2-9 4-8 3-11-9-10-9-14-5-14-1-4v-18l4-11 7-9 9-6 7-4 7-8 9-10 2-4-7-1-7 2h-11l-9-3-7-6-6-10-1-4v-8l3-8 6-5 7-1 6 5 2 1h10l5-3 10-2 1-1v-8l-4-8-5-6-14-7-8 1h-9l-5-5-4-1-15 7-5 9-7 6-4 4v16l2 4v8l-3 8-7 6-6 3h-2l2 7-1 9-4 6-7 6-14 5 1 8 1 10-2 9-7 8-13 8-8 9v11l-3 8-7 6-8 3-8 2-9 16-11 13-11 7-11 3h-16l-15-5-29-15-5-3-4-1-2 5-9 7-6 2h-13l-9-4-7-8-1-3v-17l1-8-2-1-12-1-3-6-19-11-5-4-7-10-6-9-6-7-6-16-2-5-1-6v-11l6-17 4-6 2-1 5 1 2-1-1-9-2-12 1-11 4-10 8-10 7-5 9-2 13 1 3-4v-2l-6-5-2-5v-7l4-9 4-5 9-5 10-2-2-5-8-5-3-3-1-6 4-9 1-16 4-3h8l9 3 5-5 8-5-7-3-1-8 3-3v-7l-5-7-6-3h-6l-11 9-10 7-11 5-11 3-16 1-15-3-12-5-9-6-10-9-5-6h-20l-15 2h-5l4 10v7l-3 10-6 8-6 4-13 2-4 1-6-9-9-16-8-9-9 1-15 4h-12l-5-2v-10l-4-2-5 1-6 5h-2l-2 5-7 8-8 7-7 3-5 1h-11l-3-3-3-8-8-10h-4l-1 6-2 10-11 4-15 11-14 7-13 4-10 2h-16l-13-4-6-4-4-5-4-8-2-7-2-17-1-2h-5l-6 9-7 16-2 10v6l-6 5-13 4-8 6-6 5-6 1-15-9-6-5-6-2-7 1-5 5-7 2-4-2-9-12-2-6-6-3-6 2-4 10-5 5-6 3-6 1-9-3-5-4-3-6-1-12 2-9v-5l-13-4-4-4-1-3v-11l1-4-12-1-16-4-17-9-7-6-7-10-4-11-1-6-1-16-1-3v-14l4-10 5-7v-2l-11-6-9-9-4-11v-9l3-11 6-9 6-7-3-16v-8l3-17 5-14 10-17 5-5 6-4 7-10 7-6 12-7 16-5 8-1h10l8 1h9l4-4 6 1 10 4h5l4-3h10l9 1 4-2 3-8 2-1h6l2 2 2 7 3 5 3 7 5 4 4-1 2-7v-24l3-5 7-3 9 1 5 5 6 7 4 1 7-8 7-4 4-1h17l10 3 9 6 4 5 2 1h12l5-6 10-1h10l6-2 7-8 5-3h8l8 4 4 5 3 9 3 2h23l11 4 8 5 4-2 8-7 14-8 4-9 7-5v-13l4-6 4-3 9-2 2-16 3-11 4-12 8-8 14-7 12-2 14 3 8 4 8 9 4 10 1 8 7 1 6-2 2-3 3-1h11l12-5 16-1-2-7 1-6 4-5 5-2h6l5 3 3 5 9 3h5l3-7v-19l-4-9-4-5-7-3-5-1h-7l-11 4-9 8-6 11-2 9 4 2 2 2 1 5 3 2-1 3h-8l-5-4-4-9v-20l5-10 7-8 9-6 9-3 5-1h8l10 3 9 6 8 9h5l7-11 9-9 12-6zm-17 30-5 4-5 10-1 7 3 5h6l1-1h8l3 5 7 4 4 1 4-4 2-5v-10l-4-6-15-8-4-2zm47-1-3 3 2 7 5 2 1-5-4-7zm-213 35-10 2-8 5-7 7-6 12v6l10 4 4 6h10l5-1 5 6 5 2 5-1 2-6 7-8 4-5 2-5-1-9-4-6-9-6-5-2zm266 13-17 1-3 3 4 4 5 2h11l5-3 2-4-2-3zm-524 87-5 3-3 4v7l6 9 2 2 14 4h12l6-3 5-11 1-5-16 1-13-8-6-3zm56 0-2 7 1 7 4 4 9-1 11-3-1-4-7-5h-2l-2-4-2-1zm667 24m31 51-1 6 3 6 6 1 4-3-2-4-5-5zm-23 17-5 5-5 6-1 2v9l3 6 5 5h7l2-5 16-2 8-4 5-6 1-4-3-3h-2l-1-3-3-1h-17l-2-5zm-199 46 1 2zm14 1v3l5 3 5 1h9l4-4v-3zm-16 21-3 7 1 3 6 2 2-5-1-4zm289 345-7 6-1 4 6 10 3 3 6-1 10-8-1-6-4-5-7-3zm22 52-2 2 1 5 5-1 2-1-2-5z" fill="#232323"/>
<path transform="translate(855,533)" d="m0 0 9 1 20 11 21 12 18 10 26 15 23 13 27 15 13 8 4 5-2 8-10 19-18 36-10 19-15 28-35 70-10 19-18 35-10 18-5 6-2 1-9-1-15-9-26-15-24-13-23-13-21-12-36-20-5-5-1-7 8-16 18-35 10-19 23-45 12-23 15-30 10-19 12-23 10-19 11-21z" fill="#212121"/>
<path transform="translate(1155,838)" d="m0 0h60l16 5 11 7 9 10 10 16 9 21 5 12 2 2 5 16 13 36 7 20 8 19 6 11 6 7 1 4 3 1 7 9 8 11 10 15 8 11 15 15-1 8-7 11-11 11-17 11-16 8-13 4-21 3-16-2-14-5-5-3-7-12-5-8-4-15-3-10-1-3-4-2-21-9-10-7-5-5-1-2 10 2 14 2h12l17-3 10-5h2l1-4-24 5h-19l-15-3-16-7-12-8-10-9-8-9-13-19-10-21 1-2 8 6 13 5 12 1-2-4-21-9-13-9-9-8-15-8-28-10-14-9-10-10-5-10-1-10 4-11 7-8 9-6 7-2 10 1 14 7 14 8 21 10 21 7 9 2 10 1h19l5-6 1-3-9 2h-8l1-6 6-9 6-7 11-7 11-4 1-3-1-1h-7l-11 4-11 7-8 9-6 10-3 6-11-1-5-2-3-5-2-11 2-19-3 1-4 10-2 19-16-7-14-6 1-5 6-10 11-12 17-13zm-21 46-2 2 1 5 5-1 2-1-2-5z" fill="#F8DABF"/>
<path transform="translate(909,242)" d="m0 0 11 1 11 4 5 5 6 15 1 5-1 11-4 8-8 7-2 2 14-5h2l2-5 1-2v-12l-7-19-1-3 4 1 6 7 3 7v16l-5 13-7 8-6 4-12 3h-10l-10-4-4-5 1-9 5-5 6-5 2-5-1-6-2-3-3-1h-11l-8 5-3 6-1 7 6 1v-2h-2l1-3 7 1 2 1v6l-4 12 2 9 7 6 9 6 8 8 4 9v10l2-1h6l3 4v10l-3 13-3 3-9 3-8 22-7 14-2 3 1 4-8 5v-3l-2 4-7 6-11 5-14 3h-18l-12-3-12-5-9-7-9-9-1-7 5-3-10-6-1 2 2 4-2 5h-2l-5-13-4-8-2-2-7-1-3-3-5-11 1-4 5-3 9-14 8-16 6-18 1-7v-18l-1 12-6 17-8 21-5 9h-1l1-10 8-30 4-21 3-5 5-8 4-12v-12l-2-3 1-8 2-3 5 2h11l5-2-1 5 5 2-1 3-4-2v2l-3 1-4 7-2 3 11-1 8 5 5 6 4 11 1 6-1 16-4 14-12 25-12 20-4 4 10-1 5-1h13l6 4 5 9 1 3 5 2 9 5 1 5-1 1h-11l-10-3h-9l1 7 7 6 8 3h8l9-3 9-6 8-11 5-12h-9l-11-2-10-4-9-8-3-8 1-8 4-5 4-2h10l11 4 8 6h4l-2-6-7-6-19-8-8-7-4-6-2-6v-20l5-15 7-11 9-10 8-7 14-7 11-3z" fill="#EBB213"/>
<path transform="translate(161,327)" d="m0 0h4l-1 7 9 5 3 5-1 8 9-1-1 2h-2v2l4-1 2 2v2l1 7 4 1-1 5-5-1-1 2h-2l4 6v14l-3 15-5 13-8 14-5 6-10 7-9 5 6 7 11 15 5 11 3 10 1 7v16l-4 18-8 16-8 10-13 10-9 4h-10l-4-2-4 1 1-4-10-5-4-6-1-8 2-9 5-12 4 4 2 11 10 1 5 5v2l4 2 3 1-1-9-7-11-7-6-7-4 1-4 4-3h6l4 2v-13l-4-4-21-5-3-1-1-12-4-16-16-14-6-8-5-11-2-7-1-8v-12l3-16 6-16 7-11 1-2 7-4 6-4 8-1 2-3v-4l9-2 11-5h11l27 5-6-10-1-4-2-2 4-1z" fill="#EBB213"/>
<path transform="translate(414,319)" d="m0 0 2 1 11 1-4 3-11 4 7-2 3-1h7l12 4 8 8 6 12 1 3v16l-4 11-6 8-8 6-17 9-4 5v3l6 1 12-3 6 1 4 8-2 5h-2l-2 4-7 8-6 4h-14l2 5 6 3h13l13-2-6 11 4-2h6l1-6 7 2-4 7-8 9-9 5-8 2-7-1-5-3v-2h-3v6l-2 1h-6l-3-3v-2l-4-2-13-9-7-7-9-16-2 6v7l-4 9-2 3v5h5l2-4 3 2v-3h-6l-1 2v-5l3-3h2l1-2 4 5 1 5-4 8-9 6-11 4-16 3-2-1h-17l-11-4-8-6-4-8-1-4v-22l6-39 5-32 3-5 4-3-1-2 15 1 15 3v9l-3 20-7 31-1 8 6 1 3-10 9-44 4-24 5-6 10-3h11l3 3 2 15v6l3-3 4-12 8-13 9-10 4-7z" fill="#EBB213"/>
<path transform="translate(679,281)" d="m0 0h9l10 3 11 6 7 8 6 13 2 8 1 17-3 19-7 21-9 19-10 13-7 8-11 8-9 4-4 1h-10l-11-4-8-6-7-7-5-8v-2h-2l3 7 3 5-1 5 7 6-1 2h-11l-21-5-5-5v-7l6-2 1-17 3-15 12-36 5-14-2-5-1-1v-12l1-2h2l1 6 8-2 9-9 4-5 13-9 10-4z" fill="#ECB213"/>
<path transform="translate(273,529)" d="m0 0 10 1 10 4 6 4 5 6 3 11v28l-5 19-9 21-11 23-7 6h-7l-10-5-11-9-3-6-1-4-2-27v-26l-4-6-5-2-7 1-6 4-4 8v13l3 6 6 3 12-2-2 4v3l3-8h1l2 21v13l4 10 4 5 13 8 6 3-1 6-6 4-7 6-6 1-15-9-6-5-4-7v-2l-9-2-9-8-6-10-3 7-5 3-7-1-6-4v-8l2-1 7 1-1-3-5-2 2-6 1-5 6-22h1l4 20 2 1-3-12v-10l4-13 7-12 6-7 8-6 2-1h9l6 2-3-3-12-1 4-4 19-9 6-1 19-1 4-1z" fill="#EBB214"/>
<path transform="translate(858,520)" d="m0 0h12l16 8 19 11 21 13 28 16 27 16 21 12 17 10 6 5 3 9-3 10-10 19-16 31-10 19-17 33-9 17-26 52-10 19-18 35-12 22-7 10-5 4-2 1h-9l-21-11-23-13-24-13-23-12-18-10-46-26-5-4-3-7 1-9 5-11 24-48 12-22 15-29 9-17 8-16 19-37 10-19 16-31 12-22 6-9 7-5zm-3 13-5 4-17 33-18 34-18 35-15 30-10 19-20 39-14 27-16 30-1 8 3 5 17 10 19 10 24 14 27 15 24 13 17 10 20 12 9 1 5-4 8-14 15-29 10-19 14-27 32-64 12-22 23-45 13-26 3-7-2-5-8-6-29-16-25-14-24-14-27-15-26-15-14-7z" fill="#D0D1D3"/>
<path transform="translate(538,488)" d="m0 0h7l5 3-2 13h2v-7l2-6 2-1-2 11-1 7 5 2v12l-3 7-3 4h-2l-1 9-1 4h-2l-2 16 2-1-1 7-2 1-1 4-1 2 5-1-2 3-5 1 1 2 5-1 2 2-6 3v-2l-2 1-1 5-7 8-3 2h-3l2 9-7 2-2-1-4 1h-8l-7-3-1-1v-7l6-9 10-28 1-4-7-1-4-2-8 2 5 7-2 12-7 23-6 9-8 7-13 7-7 2h-12l-10-4-10-9-2-4-1-11 5-21 6-20 10-36 2-3h2l8 21 1 4-7 30-1 13 3 1 6-5 12-17 8-14 7-8-12-1-8-4-4-7v-6l2-4 2-1h13l3-3 2-9 9-4 8-1 2 4 4 1 1-3 4 1 1 2v12l-6 16-5 10-1 5 10-6 5-2 1-12 2-5h2l-2 13-1 4h3l2-17 1-18-2-3 1-5 5-4z" fill="#EBB113"/>
<path transform="translate(547,300)" d="m0 0h10l-2 10-3 1 3 4-1 11-6 14-7 9-4 3-4 1-12-3-5-5-2-5v-8l-7 1-4 5-3 7-1 9 3 7 3 4 9 1 10-4 5-3 7 1 6 4 5 7 3 14v10l-3 20-6 12-3 2-18 4-5 3-1 7 3 10-11 6-10 2h-9l-12-4-8-5-7-7v-5l10-7 2-3 11-2-3-5-8-7-1-4 2-4 17-9h10l9-4h2l2 5-1 6-2 2-1-7-1-1-3 12-6 9-5 1-7-4-3-6-1 2h-2l3 5 5 4 5 2 9 2 7-8 3-7 1-12-3-9-10-3-1-1-1-8-1 10-13 4-12 6-3 3h-2l-2 4-3 2-1-4-3-17v-24l4-13 5-14 12-6 7-3v-2h-14v-4l1-3 10-6 17-7 11-2h14l2 5 4 1 1 2h2l1-7 2-1 8 3v-5z" fill="#EBB213"/>
<path transform="translate(280,362)" d="m0 0 3 1 1 2v19l2 4 3-2-1-8-3-5v-4l3 1 5 8 5 5v3h-2l-2 4-4 3h-4v18l1 11-7 16-6 18-3 5-9 3-14 9-7 4-3 7 10-5 10-7 12-6 1-4 6-5 5 1 3 4-1 4-3 2v8l-4 12-5 9-9 10-6 4-3 1h-17l-14-5-9-6-6-10-4-14-3-23v16l-2-4-2-19-1-6-2 5-7-6-1-2-7 1-1-2 7-12 4-9 11 1 2-6 3-22 5-6 9-3 5 1 5 5h8l4 4v12l-8 43-1 11 4-1 3-5 5-22 7-43 4-11 6-5 8-3 9 3-1-5z" fill="#EBB213"/>
<path transform="translate(636,473)" d="m0 0h13l5 5v11l-6 12-12 17-13 16-12 15-7 10-7 11-1 3h12v-3l4-1 1-4 8-12 8-11 8 2-4 6-3 2v2l5-5h2v-2h2v2l2 1-1 4v3l-2-1v-5h-2l1 3v20l-3 7 5 2 1 3 3 3-4 3h-2l-1-2-1 2h-2v2h-2v-2l-7 2-31 4-14 2h-14l-3-5-1 3-14 3h-3l-1-3-1-2 1-2-4-2v-3l12-2 6-4 14-19 8-12 7-10 2-4-6-4-1-5 5-2h10l8-13 4-7-10 1-17 4h-9l1-10 4-14 3-5 6-3 33-4z" fill="#EBB215"/>
<path transform="translate(412,515)" d="m0 0h18l3 7-1 12-15 60-6 17-1 10 2 2h-6-4l-9 8-11 5-3 1h-16l-12-6-5-6-4-10-1-5v-14l7-52 3-14 4-2 7 1 4 2 7-1v9l7-2v-5l4 1 3-1 1 5v12l-5 17-7 20-8 16 1 6 2 2h9l5-5 5-10 10-37 3-15 2-22 2-4z" fill="#EBB213"/>
<path transform="translate(740,281)" d="m0 0 6 1 13 14 4 2 7 1 9-2 4 1-5 21-5 20-2 16-6 17-2 7v2h3v4l2 1 2 5 1 5-21 10-7 6-2 6-1 7-6-1-11-9v-3l-7 2-2 1h-7l-1-2 3-6 3-2v-3h2l1-4-9 4 2-5 2-2-1-2 3-5 6 1 2-5 6-14 12-37 3-4-1-5-3-7 1-9 1-3v-9l-6-7 1-4z" fill="#ECB213"/>
<path transform="translate(593,295)" d="m0 0h10l10 6 2 5v9l-10 38-11 40-6 18 2 5 3 6-4 6-4 3h-9l-11-4-8-6-3-5v-9l5-23 9-34 5-24-1-7-8-4-3-5 2-5 4-3 21-6z" fill="#EBB113"/>
<path transform="translate(1101,979)" d="m0 0 12 6 11 11 5 12 2 12-4 11-5 5-8 5-4 1h-24l-11-4-6-4-7-10-3-11 1-10 17-5 10-5 10-9z" fill="#F7DABF"/>
<path transform="translate(678,310)" d="m0 0 8 1 4 5 2 7v12l-2 14-5 14-8 15-9 11-8 8 9-3-2 4-2 1h-9l-6-4-3-5-1-5 1-18 5-19 6-16 7-13 4-5z" fill="#212121"/>
<path transform="translate(1041,932)" d="m0 0 5 2 16 11 10 5 19 7 3 2v7l-3 9-8 10-8 6-9 3h-14l-8-4-7-7-4-9-1-5v-15l4-13 4-8z" fill="#F7DAC0"/>
<path transform="translate(1138,1014)" d="m0 0 4 4 11 17 4 8v11l-4 10-9 10-8 5-6 2-10 1-12-3-9-6-5-6-3-7v-7l3-1 17-2 12-4 5-4h2v-2h2l2-4 3-7z" fill="#F6DAC0"/>
<path transform="translate(128,368)" d="m0 0h10l6 4 4 7v14l-4 15-8 17-7 9-1 1-8-1-7-7-6-12-2-12 1-12 4-10 8-9z" fill="#212121"/>
<path transform="translate(1040,845)" d="m0 0h9l11 4 7 6 4 8-1 4-17 11-8 9-4 8-1 4-1 18-5-5-8-9-6-12-2-7v-17l4-10 6-7 8-4z" fill="#F6DAC0"/>
<path transform="translate(614,251)" d="m0 0h9l5 4-2 9-6 14-7 9-7 5-9 2-13-4-11-6-10-6-3-2 4-1 1-3 5 6 5 3h4l-1-6-1-4 5-2 2-5 6-9 5-2 8-1z" fill="#ECB214"/>
<path transform="translate(775,238)" d="m0 0h7l8 3 5 4 1 2v6l-6 15-5 7-8 4-5 1h-12l-13-6-10-4-5-5v-8l2-7 10-4 5 1 2 3-1 8-1 7 6 8 2 1 12 1 2 1 1-2h10l3-2v-2l-31-1-1-1 1-9 6-7 10-3 10 1 5 5 3 5 2-1-4-7-6-4-9-2h-13l1-3 11-4z" fill="#EBB113"/>
<path transform="translate(255,547)" d="m0 0 4 1 12 4 5 5 3 5 2 7v13l-5 25-4 12-4 6-3 2-5-1-3-4 2-17v-21l-3-15-3-8-3-2 1-4h2l1-7z" fill="#222221"/>
<path transform="translate(1117,798)" d="m0 0h7l6 3 5 6 5 13 3 10 1 2-4 5-8 7-3 2-4-9-8-4-7 1-6 7-2-4-1-4v-15l4-11 4-5z" fill="#F5DAC0"/>
<path transform="translate(539,436)" d="m0 0h11l6 4-2 11-5 14-7 9-7 6-8-1-8-4v-6l4-10 7 5h4l1-2v-13l3-12z" fill="#ECB214"/>
<path transform="translate(412,350)" d="m0 0 7 1 4 5v12l-4 10-8 9-8 4h-8l-3-3 3-12 10-19 5-6z" fill="#212121"/>
<path transform="translate(72,503)" d="m0 0h14l6 3 7 9 7 6v3l-12-1-7-1h-17l-4-4-1-6 4-7z" fill="#ECB213"/>
<path transform="translate(744,246)" d="m0 0 5 1 2 3-1 8-1 7 6 8 2 1 12 1 2 1 1-2h10l5-3-2 4-8 4-5 1h-12l-13-6-10-4-5-5v-8l2-7z" fill="#EBB216"/>
<path transform="translate(578,832)" d="m0 0h7l1 2 1 14 4 8 8 7 8 3 9 1 13-1-1 3-7 2h-18l-10-4-10-9-6-7-2-4v-11z" fill="#282828"/>
<path transform="translate(337,259)" d="m0 0h6l5 5 1 7-3 7-6 3h-8l-4-4v-10l5-6z" fill="#282828"/>
<path transform="translate(206,496)" d="m0 0h2l4 6 8 6 9 5 8 3-2 7-3 1-12-5-16-12-8-1v-3l10-3z" fill="#ECB215"/>
<path transform="translate(898,468)" d="m0 0 8 1 6 7v2l-8 8-5 2-6-1-4-4v-9l4-4z" fill="#2C2C2C"/>
<path transform="translate(494,229)" d="m0 0h12l5 3-1 2-15 1-12 6-8 8-10 18h-1v-7l4-11 7-9 7-7 8-3z" fill="#2F2F2F"/>
<path transform="translate(447,402)" d="m0 0 9 3 5 3-1 4-7 10-7 14-5 2h-5l2-4 7-10 2-3 3 3-5-13v-7z" fill="#ECB214"/>
<path transform="translate(548,505)" d="m0 0h1v10l-2 14 3 1-3 1-6 25-5 25-1 7-10 5 1-17 3 1 3 5 9-45 6-25z" fill="#222"/>
<path transform="translate(549,508)" d="m0 0 7 2v12l-3 7-3 4h-2l-1 9-1 4h-2l-2 16 2-1-1 7-2 1-1 4-1 2 5-1-2 3-5 1 1 2 5-1 2 2-6 3v-2l-2 1-1 5-2-1 4-19 5-25 3-12 3-1-2-1v-8z" fill="#ECB215"/>
<path transform="translate(507,399)" d="m0 0 3 2 1 5 2-4h2l-2 13-6 9-4 4-12-3-6-4-4-4v-3h2l1-3 2 4 5 5 6 1 5-5 3-6z" fill="#212120"/>
<path transform="translate(38,376)" d="m0 0 6 1 4 4 1 7-4 6-2 1h-8l-5-5v-8l5-5z" fill="#282828"/>
<path transform="translate(527,436)" d="m0 0h7l1 5-3 10v10l-7-3-2-1-6-13v-4z" fill="#EAB115"/>
<path transform="translate(865,659)" d="m0 0 4 4v-2l4 1h-2v3l-5 2-1 5 3 9 4 3h3l2-6 1-7 2-6 1 2h2l1-2 2 2-1 5-4 9-1 9-3 2-8-1-4-5-3-8v-13z" fill="#CDCED0"/>
<path transform="translate(876,660)" d="m0 0 5 2 1 2h-2v6l-1 1-2 10-2 4-5-1-4-5-2-10 3-4h6v-2h2z" fill="#252525"/>
<path transform="translate(345,442)" d="m0 0h3v6l-8 10-7 5-7-1 2-5 8-7 7-7z" fill="#222120"/>
<path transform="translate(190,649)" d="m0 0 9 3 7 3 2 5-3 3-7 1-4-2-3-4z" fill="#EBB522"/>
<path transform="translate(1032,251)" d="m0 0 9 1 2 1v6l-5 4-6 1-5-3v-6z" fill="#2A2A2A"/>
<path transform="translate(194,395)" d="m0 0 5 3v10l-3 6h-6l-1-1v-12l2-5z" fill="#ECB319"/>
<path transform="translate(557,461)" d="m0 0h1v15l-4 12-8-4-1-3 9-13z" fill="#ECB520"/>
<path transform="translate(547,530)" d="m0 0h4l-1 3h-2l-1 9-1 4h-2l-2 16 2-1-1 7-2 1-1 4-1 2 5-1-2 3-5 1 1 2 5-1 2 2-6 3v-2l-2 1-1 5-2-1 4-19 5-25 3-12z" fill="#D0D1D3"/>
<path transform="translate(289,287)" d="m0 0h7l3 3 1 6-5 5-6-2-3-3v-6z" fill="#292929"/>
<path transform="translate(903,616)" d="m0 0 5 1 6 5 4 9 2 11-4 8-10 5h-2v-4l-2 2-2-4 5-1h1l9-1 1-1v-12l-4-10-7-6z" fill="#C2C3C5"/>
<path transform="translate(627,554)" d="m0 0 2 1-2 4-9 9 1 1 6-2 2 1 1 8-4-2-3-1-3 3-2 3-3-1v-7l10-12h2z" fill="#282826"/>
<path transform="translate(102,610)" d="m0 0 4 1 2 2v10l-2 2-7-1v-9z" fill="#2A2A2A"/>
<path transform="translate(187,503)" d="m0 0 4 1 2 6-1 2h-2l-1 4-4 5-3 1-2-1 1-10 1-2 2 1 1 3 3-3v-3l-2-1z" fill="#E6B73D"/>
<path transform="translate(1323,1024)" d="m0 0 3 1 7 9 8 11 10 15 2 5-5-5-13-18-12-16z" fill="#4A4A4B"/>
<path transform="translate(879,618)" d="m0 0 1 3-6 9 2 6-1 8-3-4-2-4v-7l5-9z" fill="#B1B2B3"/>
<path transform="translate(1125,861)" d="m0 0 1 3-4 6-3 2-2 6 2 4v3l-7-2 1-5 6-10z" fill="#D3D1D1"/>
<path transform="translate(284,370)" d="m0 0 2 1 2 5 2 6-1 5-3 2-3-5z" fill="#212121"/>
<path transform="translate(1192,1059)" d="m0 0 10 2 4 2v4l2 5-5-2-9-7z" fill="#DAD3CE"/>
<path transform="translate(823,486)" d="m0 0 5 2 3 3-1 7-5 4-6-2-1-10 4-2-1 9 6 1 1-7z" fill="#CDCED0"/>
<path transform="translate(548,423)" d="m0 0h5l4 6v5l-5-4-11-2 4-3z" fill="#ECB41D"/>
<path transform="translate(179,497)" d="m0 0h5l2 5-1 2-11 1 1-5z" fill="#ECB318"/>
<path transform="translate(903,616)" d="m0 0 5 1 6 5 4 9 2 11-1 3h-2l-1-11-4-10-7-6z" fill="#D0D1D3"/>
<path transform="translate(471,591)" d="m0 0 3 1-3 5-5 3-5-1v-3z" fill="#242320"/>
<path transform="translate(364,456)" d="m0 0 2 3 6-1 1 2-1 2h-4l1 2-7 1-1-1v-5z" fill="#242320"/>
<path transform="translate(106,578)" d="m0 0 7 2 1 4h-13l1-4z" fill="#E9B421"/>
<path transform="translate(69,567)" d="m0 0 5 2 9 6 12 6-3 1-10-4-12-9z" fill="#E7C166"/>
<path transform="translate(878,462)" d="m0 0 1 4-1 4v10l-8 6-4 2 6-8 4-2-1-10z" fill="#D0D1D3"/>
<path transform="translate(564,272)" d="m0 0 5 5 8 5-1 3-11-6-5-2 4-2z" fill="#D0D1D3"/>
<path transform="translate(1198,880)" d="m0 0h2l-1 4-5 4-1 2h-2v2l-4 3-2-1 8-10z" fill="#D4D2D1"/>
<path transform="translate(264,529)" d="m0 0h6l2 4-18 1 3-3z" fill="#EAB525"/>
<path transform="translate(541,574)" d="m0 0 3 1-5 3h-2l1 2 5-1 2 2-6 3v-2l-2 1-1 5-2-1 2-10z" fill="#C5C6C8"/>
<path transform="translate(199,448)" d="m0 0h1l1 6v16l-2-4-2-16h2z" fill="#E2B33B"/>
<path transform="translate(293,623)" d="m0 0 1 3-6 13-2 3-1-5 7-13z" fill="#484949"/>
<path transform="translate(793,840)" d="m0 0 5 1 5 5v1l-7-1-3-2z" fill="#212121"/>
<path transform="translate(837,466)" d="m0 0 2 1 2 3 8 2 9 1-1 2-12-1-8-4z" fill="#D0D1D3"/>
<path transform="translate(509,395)" d="m0 0h2l2 5-1 6-2 2-1-7-3-2 1-3z" fill="#E7B225"/>
<path transform="translate(1131,978)" d="m0 0 9 6-2 5h-3l-4-9z" fill="#D3D1D1"/>
<path transform="translate(1038,902)" d="m0 0h1v15l-5-5-2-3h3 2z" fill="#D1D1D2"/>
<path transform="translate(530,596)" d="m0 0 3 4v3l-5 2-1-4-2-1h3z" fill="#EDBA39"/>
<path transform="translate(543,561)" d="m0 0 1 2-1 5-2 1-1 4-3 3 2-12z" fill="#D0D1D3"/>
<path transform="translate(165,350)" d="m0 0 1 2 6 2-2 4-5-1-1-6z" fill="#2C2920"/>
<path transform="translate(1182,899)" d="m0 0 5 3 6 1-4 2h-8z" fill="#D1D1D2"/>
<path transform="translate(1240,1105)" d="m0 0 3 4 5 10-1 2-4-5-3-6z" fill="#404141"/>
<path transform="translate(627,554)" d="m0 0 2 1-2 4-9 9-2-1 7-8h2z" fill="#212121"/>
<path transform="translate(516,523)" d="m0 0h2l-2 13-1 2-2-1 2-12z" fill="#E9C77A"/>
<path transform="translate(161,340)" d="m0 0 8 5v2l-5 3z" fill="#332E1F"/>
<path transform="translate(1249,1122)" d="m0 0 4 5 7 7-2 1-5-3-4-7z" fill="#363737"/>
<path transform="translate(1138,889)" d="m0 0 4 2v5l-9-4 3-2z" fill="#DBD5D1"/>
<path transform="translate(636,582)" d="m0 0 3 1 1 3 3 3-4 3h-2l-1-9z" fill="#D9CFC5"/>
<path transform="translate(1009,347)" d="m0 0 9 3v3l3 4-1 2-11-11z" fill="#D0D1D3"/>
<path transform="translate(922,352)" d="m0 0 1 3 3 1-2 5h-4l1-6z" fill="#272520"/>
<path transform="translate(1061,882)" d="m0 0 2 2-6 4-5 7-2-1 4-6z" fill="#D1D1D2"/>
<path transform="translate(547,530)" d="m0 0h4l-1 3h-2l-2 11-2-1 1-8z" fill="#C4C5C7"/>
<path transform="translate(900,424)" d="m0 0h3l-1 4-8 4 2-4z" fill="#EFC258"/>
<path transform="translate(235,576)" d="m0 0 4 1-2 4-4 2-1-2z" fill="#D0A845"/>
<path transform="translate(855,263)" d="m0 0 4 1-5 5-2 1-2-1 2-4z" fill="#EBB319"/>
<path transform="translate(936,367)" d="m0 0 2 4v12l-2 1 1-6h-2z" fill="#C9CACC"/>
<path transform="translate(1101,979)" d="m0 0 7 3-4 2-7 1z" fill="#D1D1D2"/>
<path transform="translate(876,660)" d="m0 0 5 2 1 2-6 1-1 2-2-1v-3h2z" fill="#8F8F91"/>
<path transform="translate(1138,1014)" d="m0 0 4 4 2 4-4-1-1 5h-1z" fill="#D1D1D2"/>
<path transform="translate(1041,932)" d="m0 0 5 2 2 2h-3l-4 1-3 1 2-5z" fill="#D4D2D0"/>
<path transform="translate(564,272)" d="m0 0 5 5-1 2-5-1-3-2 4-1z" fill="#B5B5B7"/>
<path transform="translate(247,682)" d="m0 0 5 1v3l-3 1-3-2z" fill="#6C6C6D"/>
</svg>
